<svg width="560" height="560" viewBox="0 0 560 560"><g class="vx-group audiogram-undefined" transform="translate(60, 40)"><g class="vx-group template-grid" transform="translate(0, 0)"><g class="vx-group vx-grid" transform="translate(0, 0)"><g class="vx-group vx-rows" transform="translate(0, 0)"><line class="vx-line" x1="0" y1="17.642857142857142" x2="480" y2="17.642857142857142" fill="transparent" stroke="#c9c9c9" stroke-width="1"></line><line class="vx-line" x1="0" y1="52.92857142857142" x2="480" y2="52.92857142857142" fill="transparent" stroke="#9e9e9e" stroke-width="1"></line><line class="vx-line" x1="0" y1="88.21428571428572" x2="480" y2="88.21428571428572" fill="transparent" stroke="#c9c9c9" stroke-width="1"></line><line class="vx-line" x1="0" y1="123.5" x2="480" y2="123.5" fill="transparent" stroke="#c9c9c9" stroke-width="1"></line><line class="vx-line" x1="0" y1="158.7857142857143" x2="480" y2="158.7857142857143" fill="transparent" stroke="#c9c9c9" stroke-width="1"></line><line class="vx-line" x1="0" y1="194.07142857142856" x2="480" y2="194.07142857142856" fill="transparent" stroke="#c9c9c9" stroke-width="1"></line><line class="vx-line" x1="0" y1="229.35714285714286" x2="480" y2="229.35714285714286" fill="transparent" stroke="#c9c9c9" stroke-width="1"></line><line class="vx-line" x1="0" y1="264.6428571428571" x2="480" y2="264.6428571428571" fill="transparent" stroke="#c9c9c9" stroke-width="1"></line><line class="vx-line" x1="0" y1="299.9285714285714" x2="480" y2="299.9285714285714" fill="transparent" stroke="#c9c9c9" stroke-width="1"></line><line class="vx-line" x1="0" y1="335.2142857142857" x2="480" y2="335.2142857142857" fill="transparent" stroke="#c9c9c9" stroke-width="1"></line><line class="vx-line" x1="0" y1="370.5" x2="480" y2="370.5" fill="transparent" stroke="#c9c9c9" stroke-width="1"></line><line class="vx-line" x1="0" y1="405.7857142857143" x2="480" y2="405.7857142857143" fill="transparent" stroke="#c9c9c9" stroke-width="1"></line><line class="vx-line" x1="0" y1="441.0714285714286" x2="480" y2="441.0714285714286" fill="transparent" stroke="#c9c9c9" stroke-width="1"></line><line class="vx-line" x1="0" y1="476.3571428571429" x2="480" y2="476.3571428571429" fill="transparent" stroke="#c9c9c9" stroke-width="1"></line></g><g class="vx-group vx-columns" transform="translate(0, 0)"><line class="vx-line" x1="42.31903868923387" y1="0" x2="42.31903868923387" y2="494" fill="transparent" stroke="#c9c9c9" stroke-width="1"></line><line class="vx-line" x1="124.56008995996314" y1="0" x2="124.56008995996314" y2="494" fill="transparent" stroke="#c9c9c9" stroke-width="1"></line><line class="vx-line" x1="172.66802097322574" y1="0" x2="172.66802097322574" y2="494" fill="transparent" stroke="#c9c9c9" stroke-width="1" stroke-dasharray="8"></line><line class="vx-line" x1="206.8011412306924" y1="0" x2="206.8011412306924" y2="494" fill="transparent" stroke="#c9c9c9" stroke-width="1"></line><line class="vx-line" x1="254.909072243955" y1="0" x2="254.909072243955" y2="494" fill="transparent" stroke="#c9c9c9" stroke-width="1" stroke-dasharray="8"></line><line class="vx-line" x1="289.0421925014216" y1="0" x2="289.0421925014216" y2="494" fill="transparent" stroke="#c9c9c9" stroke-width="1"></line><line class="vx-line" x1="337.15012351468414" y1="0" x2="337.15012351468414" y2="494" fill="transparent" stroke="#c9c9c9" stroke-width="1" stroke-dasharray="8"></line><line class="vx-line" x1="371.28324377215085" y1="0" x2="371.28324377215085" y2="494" fill="transparent" stroke="#c9c9c9" stroke-width="1"></line><line class="vx-line" x1="419.39117478541345" y1="0" x2="419.39117478541345" y2="494" fill="transparent" stroke="#c9c9c9" stroke-width="1" stroke-dasharray="8"></line><line class="vx-line" x1="453.52429504288017" y1="0" x2="453.52429504288017" y2="494" fill="transparent" stroke="#c9c9c9" stroke-width="1"></line><line class="vx-line" x1="480" y1="0" x2="480" y2="494" fill="transparent" stroke="#c9c9c9" stroke-width="1"></line></g></g><g class="vx-group template-grid-axes" transform="translate(0, 0)"><g class="vx-group vx-axis vx-axis-top" transform="translate(-1, 0)"><g class="vx-group vx-axis-tick" transform="translate(0, 0)"><svg x="0" y="0" font-size="10" style="overflow: visible;"><text x="42.31903868923387" y="-8" font-family="Arial" font-size="10" fill="#696969" text-anchor="middle"><tspan x="42.31903868923387" dy="0em">250 Hz</tspan></text></svg></g><g class="vx-group vx-axis-tick" transform="translate(0, 0)"><svg x="0" y="0" font-size="10" style="overflow: visible;"><text x="124.56008995996314" y="-8" font-family="Arial" font-size="10" fill="#696969" text-anchor="middle"><tspan x="124.56008995996314" dy="0em">500 Hz</tspan></text></svg></g><g class="vx-group vx-axis-tick" transform="translate(0, 0)"><svg x="0" y="0" font-size="10" style="overflow: visible;"><text x="206.8011412306924" y="-8" font-family="Arial" font-size="10" fill="#696969" text-anchor="middle"><tspan x="206.8011412306924" dy="0em">1 kHz</tspan></text></svg></g><g class="vx-group vx-axis-tick" transform="translate(0, 0)"><svg x="0" y="0" font-size="10" style="overflow: visible;"><text x="289.0421925014216" y="-8" font-family="Arial" font-size="10" fill="#696969" text-anchor="middle"><tspan x="289.0421925014216" dy="0em">2 kHz</tspan></text></svg></g><g class="vx-group vx-axis-tick" transform="translate(0, 0)"><svg x="0" y="0" font-size="10" style="overflow: visible;"><text x="371.28324377215085" y="-8" font-family="Arial" font-size="10" fill="#696969" text-anchor="middle"><tspan x="371.28324377215085" dy="0em">4 kHz</tspan></text></svg></g><g class="vx-group vx-axis-tick" transform="translate(0, 0)"><svg x="0" y="0" font-size="10" style="overflow: visible;"><text x="453.52429504288017" y="-8" font-family="Arial" font-size="10" fill="#696969" text-anchor="middle"><tspan x="453.52429504288017" dy="0em">8 kHz</tspan></text></svg></g><line class="vx-line vx-axis-line" x1="0.5" y1="0" x2="480.5" y2="0" fill="transparent" stroke="#333333" stroke-width="1"></line></g><g class="vx-group vx-axis vx-axis-left" transform="translate(0, -1)"><g class="vx-group vx-axis-tick" transform="translate(0, 0)"><svg x="0" y="0" font-size="10" style="overflow: visible;"><text x="-8" y="17.642857142857142" font-family="Arial" font-size="10" fill="#696969" text-anchor="middle"><tspan x="-8" dy="0em">-10</tspan></text></svg></g><g class="vx-group vx-axis-tick" transform="translate(0, 0)"><svg x="0" y="0" font-size="10" style="overflow: visible;"><text x="-8" y="52.92857142857142" font-family="Arial" font-size="10" fill="#696969" text-anchor="middle"><tspan x="-8" dy="0em">0</tspan></text></svg></g><g class="vx-group vx-axis-tick" transform="translate(0, 0)"><svg x="0" y="0" font-size="10" style="overflow: visible;"><text x="-8" y="88.21428571428572" font-family="Arial" font-size="10" fill="#696969" text-anchor="middle"><tspan x="-8" dy="0em">10</tspan></text></svg></g><g class="vx-group vx-axis-tick" transform="translate(0, 0)"><svg x="0" y="0" font-size="10" style="overflow: visible;"><text x="-8" y="123.5" font-family="Arial" font-size="10" fill="#696969" text-anchor="middle"><tspan x="-8" dy="0em">20</tspan></text></svg></g><g class="vx-group vx-axis-tick" transform="translate(0, 0)"><svg x="0" y="0" font-size="10" style="overflow: visible;"><text x="-8" y="158.7857142857143" font-family="Arial" font-size="10" fill="#696969" text-anchor="middle"><tspan x="-8" dy="0em">30</tspan></text></svg></g><g class="vx-group vx-axis-tick" transform="translate(0, 0)"><svg x="0" y="0" font-size="10" style="overflow: visible;"><text x="-8" y="194.07142857142856" font-family="Arial" font-size="10" fill="#696969" text-anchor="middle"><tspan x="-8" dy="0em">40</tspan></text></svg></g><g class="vx-group vx-axis-tick" transform="translate(0, 0)"><svg x="0" y="0" font-size="10" style="overflow: visible;"><text x="-8" y="229.35714285714286" font-family="Arial" font-size="10" fill="#696969" text-anchor="middle"><tspan x="-8" dy="0em">50</tspan></text></svg></g><g class="vx-group vx-axis-tick" transform="translate(0, 0)"><svg x="0" y="0" font-size="10" style="overflow: visible;"><text x="-8" y="264.6428571428571" font-family="Arial" font-size="10" fill="#696969" text-anchor="middle"><tspan x="-8" dy="0em">60</tspan></text></svg></g><g class="vx-group vx-axis-tick" transform="translate(0, 0)"><svg x="0" y="0" font-size="10" style="overflow: visible;"><text x="-8" y="299.9285714285714" font-family="Arial" font-size="10" fill="#696969" text-anchor="middle"><tspan x="-8" dy="0em">70</tspan></text></svg></g><g class="vx-group vx-axis-tick" transform="translate(0, 0)"><svg x="0" y="0" font-size="10" style="overflow: visible;"><text x="-8" y="335.2142857142857" font-family="Arial" font-size="10" fill="#696969" text-anchor="middle"><tspan x="-8" dy="0em">80</tspan></text></svg></g><g class="vx-group vx-axis-tick" transform="translate(0, 0)"><svg x="0" y="0" font-size="10" style="overflow: visible;"><text x="-8" y="370.5" font-family="Arial" font-size="10" fill="#696969" text-anchor="middle"><tspan x="-8" dy="0em">90</tspan></text></svg></g><g class="vx-group vx-axis-tick" transform="translate(0, 0)"><svg x="0" y="0" font-size="10" style="overflow: visible;"><text x="-8" y="405.7857142857143" font-family="Arial" font-size="10" fill="#696969" text-anchor="middle"><tspan x="-8" dy="0em">100</tspan></text></svg></g><g class="vx-group vx-axis-tick" transform="translate(0, 0)"><svg x="0" y="0" font-size="10" style="overflow: visible;"><text x="-8" y="441.0714285714286" font-family="Arial" font-size="10" fill="#696969" text-anchor="middle"><tspan x="-8" dy="0em">110</tspan></text></svg></g><g class="vx-group vx-axis-tick" transform="translate(0, 0)"><svg x="0" y="0" font-size="10" style="overflow: visible;"><text x="-8" y="476.3571428571429" font-family="Arial" font-size="10" fill="#696969" text-anchor="middle"><tspan x="-8" dy="0em">120</tspan></text></svg></g><line class="vx-line vx-axis-line" x1="0" y1="0.5" x2="0" y2="494.5" fill="transparent" stroke="#333333" stroke-width="1"></line><svg x="0" y="0" font-size="10" style="overflow: visible;"><text class="vx-axis-label" x="-247" y="-44" transform="rotate(-90)" font-family="Arial" font-size="10" fill="#333333" text-anchor="middle"><tspan x="-247" dy="0em">dB HL</tspan></text></svg></g><g class="vx-group vx-axis vx-axis-bottom" transform="translate(-1, 494)"><g class="vx-group vx-axis-tick" transform="translate(0, 0)"><svg x="0" y="0" font-size="10" style="overflow: visible;"><text x="254.909072243955" y="18" font-family="Arial" font-size="10" fill="#696969" text-anchor="middle"><tspan x="254.909072243955" dy="0em">1.5 kHz</tspan></text></svg></g><g class="vx-group vx-axis-tick" transform="translate(0, 0)"><svg x="0" y="0" font-size="10" style="overflow: visible;"><text x="337.15012351468414" y="18" font-family="Arial" font-size="10" fill="#696969" text-anchor="middle"><tspan x="337.15012351468414" dy="0em">3 kHz</tspan></text></svg></g><g class="vx-group vx-axis-tick" transform="translate(0, 0)"><svg x="0" y="0" font-size="10" style="overflow: visible;"><text x="419.39117478541345" y="18" font-family="Arial" font-size="10" fill="#696969" text-anchor="middle"><tspan x="419.39117478541345" dy="0em">6 kHz</tspan></text></svg></g><line class="vx-line vx-axis-line" x1="0.5" y1="0" x2="480.5" y2="0" fill="transparent" stroke="#333333" stroke-width="1"></line></g><g class="vx-group vx-axis vx-axis-right" transform="translate(479.5, 0)"><line class="vx-line vx-axis-line" x1="0" y1="0.5" x2="0" y2="494.5" fill="transparent" stroke="#333333" stroke-width="1"></line></g></g></g><g class="response-line response-line-air response-line-right"><g class="vx-group vx-glyph" transform="translate(28.31903868923387, 91.85714285714285)"><path stroke="#ec1141" stroke-width="1.25" fill="#ec1141" transform="scale(0.27999999999999997)" class="vx-glyph right.air.unmasked" d="M 82.1 55.7 Q 83.4 50.85 83.2 47.3 82.7 37.05 77.2 29.45 68.2 16.95 48.1 16.95 30.6 16.95 22.1 31.2 19.25 35.95 17.75 41.75 16.75 45.8 16.75 48.15 16.75 61.45 24.85 71.35 34.55 83.1 51.7 83.1 57.25 83.1 63.6 79.6 71.5 75.3 76.95 67.1 80.45 61.85 82.1 55.7 M 74.15 31.1 Q 79.1 37.8 79.95 47.55 80.35 52 78.05 58.15 75.2 65.95 69.25 72.35 67.15 74.7 63.65 76.8 57.75 80.35 51.65 80.35 32.35 80.35 24 65.1 19.35 56.55 19.35 48.15 19.35 41.05 24.25 32.85 32.05 19.85 47.7 19.85 65.85 19.85 74.15 31.1 Z"></path></g><line class="vx-line" x1="56.920168397427354" y1="108.98946718405318" x2="109.95896025176965" y2="120.36767567308966" fill="transparent" stroke="#ec1141" stroke-width="1.5" opacity="0.66"></line><g class="vx-group vx-glyph" transform="translate(110.56008995996314, 109.5)"><path stroke="#ec1141" stroke-width="1.25" fill="#ec1141" transform="scale(0.27999999999999997)" class="vx-glyph right.air.unmasked" d="M 82.1 55.7 Q 83.4 50.85 83.2 47.3 82.7 37.05 77.2 29.45 68.2 16.95 48.1 16.95 30.6 16.95 22.1 31.2 19.25 35.95 17.75 41.75 16.75 45.8 16.75 48.15 16.75 61.45 24.85 71.35 34.55 83.1 51.7 83.1 57.25 83.1 63.6 79.6 71.5 75.3 76.95 67.1 80.45 61.85 82.1 55.7 M 74.15 31.1 Q 79.1 37.8 79.95 47.55 80.35 52 78.05 58.15 75.2 65.95 69.25 72.35 67.15 74.7 63.65 76.8 57.75 80.35 51.65 80.35 32.35 80.35 24 65.1 19.35 56.55 19.35 48.15 19.35 41.05 24.25 32.85 32.05 19.85 47.7 19.85 65.85 19.85 74.15 31.1 Z"></path></g><line class="vx-line" x1="139.1612196681566" y1="120.36767567308966" x2="192.20001152249893" y2="108.98946718405318" fill="transparent" stroke="#ec1141" stroke-width="1.5" opacity="0.66"></line><g class="vx-group vx-glyph" transform="translate(192.8011412306924, 91.85714285714285)"><path stroke="#ec1141" stroke-width="1.25" fill="#ec1141" transform="scale(0.27999999999999997)" class="vx-glyph right.air.unmasked" d="M 82.1 55.7 Q 83.4 50.85 83.2 47.3 82.7 37.05 77.2 29.45 68.2 16.95 48.1 16.95 30.6 16.95 22.1 31.2 19.25 35.95 17.75 41.75 16.75 45.8 16.75 48.15 16.75 61.45 24.85 71.35 34.55 83.1 51.7 83.1 57.25 83.1 63.6 79.6 71.5 75.3 76.95 67.1 80.45 61.85 82.1 55.7 M 74.15 31.1 Q 79.1 37.8 79.95 47.55 80.35 52 78.05 58.15 75.2 65.95 69.25 72.35 67.15 74.7 63.65 76.8 57.75 80.35 51.65 80.35 32.35 80.35 24 65.1 19.35 56.55 19.35 48.15 19.35 41.05 24.25 32.85 32.05 19.85 47.7 19.85 65.85 19.85 74.15 31.1 Z"></path></g><line class="vx-line" x1="221.40227093888586" y1="108.98946718405318" x2="274.4410627932281" y2="120.36767567308966" fill="transparent" stroke="#ec1141" stroke-width="1.5" opacity="0.66"></line><g class="vx-group vx-glyph" transform="translate(275.0421925014216, 109.5)"><path stroke="#ec1141" stroke-width="1.25" fill="#ec1141" transform="scale(0.27999999999999997)" class="vx-glyph right.air.unmasked" d="M 82.1 55.7 Q 83.4 50.85 83.2 47.3 82.7 37.05 77.2 29.45 68.2 16.95 48.1 16.95 30.6 16.95 22.1 31.2 19.25 35.95 17.75 41.75 16.75 45.8 16.75 48.15 16.75 61.45 24.85 71.35 34.55 83.1 51.7 83.1 57.25 83.1 63.6 79.6 71.5 75.3 76.95 67.1 80.45 61.85 82.1 55.7 M 74.15 31.1 Q 79.1 37.8 79.95 47.55 80.35 52 78.05 58.15 75.2 65.95 69.25 72.35 67.15 74.7 63.65 76.8 57.75 80.35 51.65 80.35 32.35 80.35 24 65.1 19.35 56.55 19.35 48.15 19.35 41.05 24.25 32.85 32.05 19.85 47.7 19.85 65.85 19.85 74.15 31.1 Z"></path></g><line class="vx-line" x1="301.0837234498217" y1="132.33209923309104" x2="325.108592566284" y2="149.95361505262326" fill="transparent" stroke="#ec1141" stroke-width="1.5" opacity="0.66"></line><g class="vx-group vx-glyph" transform="translate(323.15012351468414, 144.7857142857143)"><path stroke="#ec1141" stroke-width="1.25" fill="#ec1141" transform="scale(0.27999999999999997)" class="vx-glyph right.air.unmasked" d="M 82.1 55.7 Q 83.4 50.85 83.2 47.3 82.7 37.05 77.2 29.45 68.2 16.95 48.1 16.95 30.6 16.95 22.1 31.2 19.25 35.95 17.75 41.75 16.75 45.8 16.75 48.15 16.75 61.45 24.85 71.35 34.55 83.1 51.7 83.1 57.25 83.1 63.6 79.6 71.5 75.3 76.95 67.1 80.45 61.85 82.1 55.7 M 74.15 31.1 Q 79.1 37.8 79.95 47.55 80.35 52 78.05 58.15 75.2 65.95 69.25 72.35 67.15 74.7 63.65 76.8 57.75 80.35 51.65 80.35 32.35 80.35 24 65.1 19.35 56.55 19.35 48.15 19.35 41.05 24.25 32.85 32.05 19.85 47.7 19.85 65.85 19.85 74.15 31.1 Z"></path></g><line class="vx-line" x1="345.24348289281954" y1="171.33569350564898" x2="363.18988439401545" y2="199.16430649435102" fill="transparent" stroke="#ec1141" stroke-width="1.5" opacity="0.66"></line><g class="vx-group vx-glyph" transform="translate(357.28324377215085, 197.7142857142857)"><path stroke="#ec1141" stroke-width="1.25" fill="#ec1141" transform="scale(0.27999999999999997)" class="vx-glyph right.air.unmasked" d="M 82.1 55.7 Q 83.4 50.85 83.2 47.3 82.7 37.05 77.2 29.45 68.2 16.95 48.1 16.95 30.6 16.95 22.1 31.2 19.25 35.95 17.75 41.75 16.75 45.8 16.75 48.15 16.75 61.45 24.85 71.35 34.55 83.1 51.7 83.1 57.25 83.1 63.6 79.6 71.5 75.3 76.95 67.1 80.45 61.85 82.1 55.7 M 74.15 31.1 Q 79.1 37.8 79.95 47.55 80.35 52 78.05 58.15 75.2 65.95 69.25 72.35 67.15 74.7 63.65 76.8 57.75 80.35 51.65 80.35 32.35 80.35 24 65.1 19.35 56.55 19.35 48.15 19.35 41.05 24.25 32.85 32.05 19.85 47.7 19.85 65.85 19.85 74.15 31.1 Z"></path></g><line class="vx-line" x1="383.324774720551" y1="202.88218648119468" x2="407.34964383701333" y2="185.26067066166246" fill="transparent" stroke="#ec1141" stroke-width="1.5" opacity="0.66"></line><g class="vx-group vx-glyph" transform="translate(405.39117478541345, 162.42857142857144)"><path stroke="#ec1141" stroke-width="1.25" fill="#ec1141" transform="scale(0.27999999999999997)" class="vx-glyph right.air.unmasked" d="M 82.1 55.7 Q 83.4 50.85 83.2 47.3 82.7 37.05 77.2 29.45 68.2 16.95 48.1 16.95 30.6 16.95 22.1 31.2 19.25 35.95 17.75 41.75 16.75 45.8 16.75 48.15 16.75 61.45 24.85 71.35 34.55 83.1 51.7 83.1 57.25 83.1 63.6 79.6 71.5 75.3 76.95 67.1 80.45 61.85 82.1 55.7 M 74.15 31.1 Q 79.1 37.8 79.95 47.55 80.35 52 78.05 58.15 75.2 65.95 69.25 72.35 67.15 74.7 63.65 76.8 57.75 80.35 51.65 80.35 32.35 80.35 24 65.1 19.35 56.55 19.35 48.15 19.35 41.05 24.25 32.85 32.05 19.85 47.7 19.85 65.85 19.85 74.15 31.1 Z"></path></g><line class="vx-line" x1="427.48453416354886" y1="163.87859220863677" x2="445.43093566474477" y2="136.04997921993467" fill="transparent" stroke="#ec1141" stroke-width="1.5" opacity="0.66"></line><g class="vx-group vx-glyph" transform="translate(439.52429504288017, 109.5)"><path stroke="#ec1141" stroke-width="1.25" fill="#ec1141" transform="scale(0.27999999999999997)" class="vx-glyph right.air.unmasked" d="M 82.1 55.7 Q 83.4 50.85 83.2 47.3 82.7 37.05 77.2 29.45 68.2 16.95 48.1 16.95 30.6 16.95 22.1 31.2 19.25 35.95 17.75 41.75 16.75 45.8 16.75 48.15 16.75 61.45 24.85 71.35 34.55 83.1 51.7 83.1 57.25 83.1 63.6 79.6 71.5 75.3 76.95 67.1 80.45 61.85 82.1 55.7 M 74.15 31.1 Q 79.1 37.8 79.95 47.55 80.35 52 78.05 58.15 75.2 65.95 69.25 72.35 67.15 74.7 63.65 76.8 57.75 80.35 51.65 80.35 32.35 80.35 24 65.1 19.35 56.55 19.35 48.15 19.35 41.05 24.25 32.85 32.05 19.85 47.7 19.85 65.85 19.85 74.15 31.1 Z"></path></g></g><g class="response-line response-line-air response-line-left"><g class="vx-group vx-glyph" transform="translate(21.319038689233867, 84.85714285714285)"><path stroke="#4111ec" stroke-width="1.25" fill="#4111ec" transform="scale(0.42000000000000004)" class="vx-glyph left.air.unmasked" d="m 32.4,33.7 c 0.75044,-0.977258 1.516998,-1.888581 2.363644,-0.414446 C 40.077007,38.218567 45.317621,43.229653 50.5,48.3 48.300109,48.412538 51.743949,46.29154 52.116028,45.516413 56.801538,40.768526 61.525115,36.058051 66.3,31.4 c 0.859531,1.153798 3.371045,2.396048 1.156003,3.441181 C 62.045408,39.967117 56.62528,45.08517 51.3,50.3 c 0.287772,-0.874475 1.624539,1.476149 2.279518,1.779282 C 58.401536,56.904755 63.205413,61.751643 68.2,66.4 67.216041,67.289323 66.286022,69.300277 65.22868,67.37789 59.877027,62.262075 54.59863,57.0705 49.3,51.9 51.823123,51.496001 48.921405,53.365354 48.375742,54.154579 43.488893,59.054416 38.67226,64.05373 33.722242,68.872323 33.027807,68.023935 31.141059,66.902765 31.265686,66.034368 36.846205,60.457556 42.507634,54.962381 48.2,49.5 48.30313,51.764739 46.331591,48.197122 45.517153,47.774511 41.095994,43.128815 36.595586,38.553612 32.4,33.7 Z m 0.2,0 c 5.835296,5.393825 11.558882,10.906546 17.3,16.4 -5.422464,5.805274 -10.980511,11.485 -16.6,17.1 -0.156784,-1.062657 0.01945,-1.87481 0.865928,-0.65192 0.663559,0.810463 -2.056635,0.371816 -0.545586,-0.345985 2.196965,-1.990761 4.173896,-4.226932 6.329959,-6.273498 C 43.328591,56.580729 46.732601,53.258866 50.1,49.9 c 5.685563,5.683064 11.206634,11.526964 16.8,17.3 -1.770295,0.453755 1.220615,-2.029664 0.247807,-0.310779 C 65.067558,64.359303 62.603776,62.051823 60.326035,59.6542 57.141729,56.411925 53.919275,53.207461 50.7,50 56.209832,44.472719 61.489117,38.722862 66.9,33.1 c 0.540588,1.490403 -1.066276,0.701571 -0.967499,0.01399 2.00475,-0.215748 -1.251709,1.899098 -1.726872,2.748765 C 59.63752,40.495156 55.021044,45.0826 50.339919,49.59944 49.052261,49.746718 47.885254,47.209582 46.63043,46.323874 42.413634,41.907421 38.122626,37.53649 34.005718,33.040988 33.793853,32.092303 33.106603,33.526452 32.6,33.7 Z"></path></g><line class="vx-line" x1="56.920168397427354" y1="102.72481853023253" x2="109.95896025176965" y2="91.34661004119604" fill="transparent" stroke="#4111ec" stroke-width="1.5" opacity="0.66"></line><g class="vx-group vx-glyph" transform="translate(103.56008995996314, 67.21428571428572)"><path stroke="#4111ec" stroke-width="1.25" fill="#4111ec" transform="scale(0.42000000000000004)" class="vx-glyph left.air.unmasked" d="m 32.4,33.7 c 0.75044,-0.977258 1.516998,-1.888581 2.363644,-0.414446 C 40.077007,38.218567 45.317621,43.229653 50.5,48.3 48.300109,48.412538 51.743949,46.29154 52.116028,45.516413 56.801538,40.768526 61.525115,36.058051 66.3,31.4 c 0.859531,1.153798 3.371045,2.396048 1.156003,3.441181 C 62.045408,39.967117 56.62528,45.08517 51.3,50.3 c 0.287772,-0.874475 1.624539,1.476149 2.279518,1.779282 C 58.401536,56.904755 63.205413,61.751643 68.2,66.4 67.216041,67.289323 66.286022,69.300277 65.22868,67.37789 59.877027,62.262075 54.59863,57.0705 49.3,51.9 51.823123,51.496001 48.921405,53.365354 48.375742,54.154579 43.488893,59.054416 38.67226,64.05373 33.722242,68.872323 33.027807,68.023935 31.141059,66.902765 31.265686,66.034368 36.846205,60.457556 42.507634,54.962381 48.2,49.5 48.30313,51.764739 46.331591,48.197122 45.517153,47.774511 41.095994,43.128815 36.595586,38.553612 32.4,33.7 Z m 0.2,0 c 5.835296,5.393825 11.558882,10.906546 17.3,16.4 -5.422464,5.805274 -10.980511,11.485 -16.6,17.1 -0.156784,-1.062657 0.01945,-1.87481 0.865928,-0.65192 0.663559,0.810463 -2.056635,0.371816 -0.545586,-0.345985 2.196965,-1.990761 4.173896,-4.226932 6.329959,-6.273498 C 43.328591,56.580729 46.732601,53.258866 50.1,49.9 c 5.685563,5.683064 11.206634,11.526964 16.8,17.3 -1.770295,0.453755 1.220615,-2.029664 0.247807,-0.310779 C 65.067558,64.359303 62.603776,62.051823 60.326035,59.6542 57.141729,56.411925 53.919275,53.207461 50.7,50 56.209832,44.472719 61.489117,38.722862 66.9,33.1 c 0.540588,1.490403 -1.066276,0.701571 -0.967499,0.01399 2.00475,-0.215748 -1.251709,1.899098 -1.726872,2.748765 C 59.63752,40.495156 55.021044,45.0826 50.339919,49.59944 49.052261,49.746718 47.885254,47.209582 46.63043,46.323874 42.413634,41.907421 38.122626,37.53649 34.005718,33.040988 33.793853,32.092303 33.106603,33.526452 32.6,33.7 Z"></path></g><line class="vx-line" x1="138.2835984354822" y1="94.10238893746391" x2="193.07763275517334" y2="117.61189677682181" fill="transparent" stroke="#4111ec" stroke-width="1.5" opacity="0.66"></line><g class="vx-group vx-glyph" transform="translate(185.8011412306924, 102.5)"><path stroke="#4111ec" stroke-width="1.25" fill="#4111ec" transform="scale(0.42000000000000004)" class="vx-glyph left.air.unmasked" d="m 32.4,33.7 c 0.75044,-0.977258 1.516998,-1.888581 2.363644,-0.414446 C 40.077007,38.218567 45.317621,43.229653 50.5,48.3 48.300109,48.412538 51.743949,46.29154 52.116028,45.516413 56.801538,40.768526 61.525115,36.058051 66.3,31.4 c 0.859531,1.153798 3.371045,2.396048 1.156003,3.441181 C 62.045408,39.967117 56.62528,45.08517 51.3,50.3 c 0.287772,-0.874475 1.624539,1.476149 2.279518,1.779282 C 58.401536,56.904755 63.205413,61.751643 68.2,66.4 67.216041,67.289323 66.286022,69.300277 65.22868,67.37789 59.877027,62.262075 54.59863,57.0705 49.3,51.9 51.823123,51.496001 48.921405,53.365354 48.375742,54.154579 43.488893,59.054416 38.67226,64.05373 33.722242,68.872323 33.027807,68.023935 31.141059,66.902765 31.265686,66.034368 36.846205,60.457556 42.507634,54.962381 48.2,49.5 48.30313,51.764739 46.331591,48.197122 45.517153,47.774511 41.095994,43.128815 36.595586,38.553612 32.4,33.7 Z m 0.2,0 c 5.835296,5.393825 11.558882,10.906546 17.3,16.4 -5.422464,5.805274 -10.980511,11.485 -16.6,17.1 -0.156784,-1.062657 0.01945,-1.87481 0.865928,-0.65192 0.663559,0.810463 -2.056635,0.371816 -0.545586,-0.345985 2.196965,-1.990761 4.173896,-4.226932 6.329959,-6.273498 C 43.328591,56.580729 46.732601,53.258866 50.1,49.9 c 5.685563,5.683064 11.206634,11.526964 16.8,17.3 -1.770295,0.453755 1.220615,-2.029664 0.247807,-0.310779 C 65.067558,64.359303 62.603776,62.051823 60.326035,59.6542 57.141729,56.411925 53.919275,53.207461 50.7,50 56.209832,44.472719 61.489117,38.722862 66.9,33.1 c 0.540588,1.490403 -1.066276,0.701571 -0.967499,0.01399 2.00475,-0.215748 -1.251709,1.899098 -1.726872,2.748765 C 59.63752,40.495156 55.021044,45.0826 50.339919,49.59944 49.052261,49.746718 47.885254,47.209582 46.63043,46.323874 42.413634,41.907421 38.122626,37.53649 34.005718,33.040988 33.793853,32.092303 33.106603,33.526452 32.6,33.7 Z"></path></g><line class="vx-line" x1="219.3586177906565" y1="131.5817217775915" x2="276.48471594145747" y2="168.34684965097995" fill="transparent" stroke="#4111ec" stroke-width="1.5" opacity="0.66"></line><g class="vx-group vx-glyph" transform="translate(268.0421925014216, 155.42857142857144)"><path stroke="#4111ec" stroke-width="1.25" fill="#4111ec" transform="scale(0.42000000000000004)" class="vx-glyph left.air.unmasked" d="m 32.4,33.7 c 0.75044,-0.977258 1.516998,-1.888581 2.363644,-0.414446 C 40.077007,38.218567 45.317621,43.229653 50.5,48.3 48.300109,48.412538 51.743949,46.29154 52.116028,45.516413 56.801538,40.768526 61.525115,36.058051 66.3,31.4 c 0.859531,1.153798 3.371045,2.396048 1.156003,3.441181 C 62.045408,39.967117 56.62528,45.08517 51.3,50.3 c 0.287772,-0.874475 1.624539,1.476149 2.279518,1.779282 C 58.401536,56.904755 63.205413,61.751643 68.2,66.4 67.216041,67.289323 66.286022,69.300277 65.22868,67.37789 59.877027,62.262075 54.59863,57.0705 49.3,51.9 51.823123,51.496001 48.921405,53.365354 48.375742,54.154579 43.488893,59.054416 38.67226,64.05373 33.722242,68.872323 33.027807,68.023935 31.141059,66.902765 31.265686,66.034368 36.846205,60.457556 42.507634,54.962381 48.2,49.5 48.30313,51.764739 46.331591,48.197122 45.517153,47.774511 41.095994,43.128815 36.595586,38.553612 32.4,33.7 Z m 0.2,0 c 5.835296,5.393825 11.558882,10.906546 17.3,16.4 -5.422464,5.805274 -10.980511,11.485 -16.6,17.1 -0.156784,-1.062657 0.01945,-1.87481 0.865928,-0.65192 0.663559,0.810463 -2.056635,0.371816 -0.545586,-0.345985 2.196965,-1.990761 4.173896,-4.226932 6.329959,-6.273498 C 43.328591,56.580729 46.732601,53.258866 50.1,49.9 c 5.685563,5.683064 11.206634,11.526964 16.8,17.3 -1.770295,0.453755 1.220615,-2.029664 0.247807,-0.310779 C 65.067558,64.359303 62.603776,62.051823 60.326035,59.6542 57.141729,56.411925 53.919275,53.207461 50.7,50 56.209832,44.472719 61.489117,38.722862 66.9,33.1 c 0.540588,1.490403 -1.066276,0.701571 -0.967499,0.01399 2.00475,-0.215748 -1.251709,1.899098 -1.726872,2.748765 C 59.63752,40.495156 55.021044,45.0826 50.339919,49.59944 49.052261,49.746718 47.885254,47.209582 46.63043,46.323874 42.413634,41.907421 38.122626,37.53649 34.005718,33.040988 33.793853,32.092303 33.106603,33.526452 32.6,33.7 Z"></path></g><line class="vx-line" x1="301.0837234498217" y1="185.26067066166246" x2="325.108592566284" y2="202.88218648119468" fill="transparent" stroke="#4111ec" stroke-width="1.5" opacity="0.66"></line><g class="vx-group vx-glyph" transform="translate(316.15012351468414, 190.7142857142857)"><path stroke="#4111ec" stroke-width="1.25" fill="#4111ec" transform="scale(0.42000000000000004)" class="vx-glyph left.air.unmasked" d="m 32.4,33.7 c 0.75044,-0.977258 1.516998,-1.888581 2.363644,-0.414446 C 40.077007,38.218567 45.317621,43.229653 50.5,48.3 48.300109,48.412538 51.743949,46.29154 52.116028,45.516413 56.801538,40.768526 61.525115,36.058051 66.3,31.4 c 0.859531,1.153798 3.371045,2.396048 1.156003,3.441181 C 62.045408,39.967117 56.62528,45.08517 51.3,50.3 c 0.287772,-0.874475 1.624539,1.476149 2.279518,1.779282 C 58.401536,56.904755 63.205413,61.751643 68.2,66.4 67.216041,67.289323 66.286022,69.300277 65.22868,67.37789 59.877027,62.262075 54.59863,57.0705 49.3,51.9 51.823123,51.496001 48.921405,53.365354 48.375742,54.154579 43.488893,59.054416 38.67226,64.05373 33.722242,68.872323 33.027807,68.023935 31.141059,66.902765 31.265686,66.034368 36.846205,60.457556 42.507634,54.962381 48.2,49.5 48.30313,51.764739 46.331591,48.197122 45.517153,47.774511 41.095994,43.128815 36.595586,38.553612 32.4,33.7 Z m 0.2,0 c 5.835296,5.393825 11.558882,10.906546 17.3,16.4 -5.422464,5.805274 -10.980511,11.485 -16.6,17.1 -0.156784,-1.062657 0.01945,-1.87481 0.865928,-0.65192 0.663559,0.810463 -2.056635,0.371816 -0.545586,-0.345985 2.196965,-1.990761 4.173896,-4.226932 6.329959,-6.273498 C 43.328591,56.580729 46.732601,53.258866 50.1,49.9 c 5.685563,5.683064 11.206634,11.526964 16.8,17.3 -1.770295,0.453755 1.220615,-2.029664 0.247807,-0.310779 C 65.067558,64.359303 62.603776,62.051823 60.326035,59.6542 57.141729,56.411925 53.919275,53.207461 50.7,50 56.209832,44.472719 61.489117,38.722862 66.9,33.1 c 0.540588,1.490403 -1.066276,0.701571 -0.967499,0.01399 2.00475,-0.215748 -1.251709,1.899098 -1.726872,2.748765 C 59.63752,40.495156 55.021044,45.0826 50.339919,49.59944 49.052261,49.746718 47.885254,47.209582 46.63043,46.323874 42.413634,41.907421 38.122626,37.53649 34.005718,33.040988 33.793853,32.092303 33.106603,33.526452 32.6,33.7 Z"></path></g><line class="vx-line" x1="343.6522857034901" y1="225.15773509734606" x2="364.78108158334487" y2="268.84226490265394" fill="transparent" stroke="#4111ec" stroke-width="1.5" opacity="0.66"></line><g class="vx-group vx-glyph" transform="translate(350.28324377215085, 261.2857142857143)"><path stroke="#4111ec" stroke-width="1.25" fill="#4111ec" transform="scale(0.42000000000000004)" class="vx-glyph left.air.unmasked" d="m 32.4,33.7 c 0.75044,-0.977258 1.516998,-1.888581 2.363644,-0.414446 C 40.077007,38.218567 45.317621,43.229653 50.5,48.3 48.300109,48.412538 51.743949,46.29154 52.116028,45.516413 56.801538,40.768526 61.525115,36.058051 66.3,31.4 c 0.859531,1.153798 3.371045,2.396048 1.156003,3.441181 C 62.045408,39.967117 56.62528,45.08517 51.3,50.3 c 0.287772,-0.874475 1.624539,1.476149 2.279518,1.779282 C 58.401536,56.904755 63.205413,61.751643 68.2,66.4 67.216041,67.289323 66.286022,69.300277 65.22868,67.37789 59.877027,62.262075 54.59863,57.0705 49.3,51.9 51.823123,51.496001 48.921405,53.365354 48.375742,54.154579 43.488893,59.054416 38.67226,64.05373 33.722242,68.872323 33.027807,68.023935 31.141059,66.902765 31.265686,66.034368 36.846205,60.457556 42.507634,54.962381 48.2,49.5 48.30313,51.764739 46.331591,48.197122 45.517153,47.774511 41.095994,43.128815 36.595586,38.553612 32.4,33.7 Z m 0.2,0 c 5.835296,5.393825 11.558882,10.906546 17.3,16.4 -5.422464,5.805274 -10.980511,11.485 -16.6,17.1 -0.156784,-1.062657 0.01945,-1.87481 0.865928,-0.65192 0.663559,0.810463 -2.056635,0.371816 -0.545586,-0.345985 2.196965,-1.990761 4.173896,-4.226932 6.329959,-6.273498 C 43.328591,56.580729 46.732601,53.258866 50.1,49.9 c 5.685563,5.683064 11.206634,11.526964 16.8,17.3 -1.770295,0.453755 1.220615,-2.029664 0.247807,-0.310779 C 65.067558,64.359303 62.603776,62.051823 60.326035,59.6542 57.141729,56.411925 53.919275,53.207461 50.7,50 56.209832,44.472719 61.489117,38.722862 66.9,33.1 c 0.540588,1.490403 -1.066276,0.701571 -0.967499,0.01399 2.00475,-0.215748 -1.251709,1.899098 -1.726872,2.748765 C 59.63752,40.495156 55.021044,45.0826 50.339919,49.59944 49.052261,49.746718 47.885254,47.209582 46.63043,46.323874 42.413634,41.907421 38.122626,37.53649 34.005718,33.040988 33.793853,32.092303 33.106603,33.526452 32.6,33.7 Z"></path></g><line class="vx-line" x1="381.3274674509305" y1="271.2350122657027" x2="409.3469511066338" y2="240.4078448771544" fill="transparent" stroke="#4111ec" stroke-width="1.5" opacity="0.66"></line><g class="vx-group vx-glyph" transform="translate(398.39117478541345, 208.35714285714286)"><path stroke="#4111ec" stroke-width="1.25" fill="#4111ec" transform="scale(0.42000000000000004)" class="vx-glyph left.air.unmasked" d="m 32.4,33.7 c 0.75044,-0.977258 1.516998,-1.888581 2.363644,-0.414446 C 40.077007,38.218567 45.317621,43.229653 50.5,48.3 48.300109,48.412538 51.743949,46.29154 52.116028,45.516413 56.801538,40.768526 61.525115,36.058051 66.3,31.4 c 0.859531,1.153798 3.371045,2.396048 1.156003,3.441181 C 62.045408,39.967117 56.62528,45.08517 51.3,50.3 c 0.287772,-0.874475 1.624539,1.476149 2.279518,1.779282 C 58.401536,56.904755 63.205413,61.751643 68.2,66.4 67.216041,67.289323 66.286022,69.300277 65.22868,67.37789 59.877027,62.262075 54.59863,57.0705 49.3,51.9 51.823123,51.496001 48.921405,53.365354 48.375742,54.154579 43.488893,59.054416 38.67226,64.05373 33.722242,68.872323 33.027807,68.023935 31.141059,66.902765 31.265686,66.034368 36.846205,60.457556 42.507634,54.962381 48.2,49.5 48.30313,51.764739 46.331591,48.197122 45.517153,47.774511 41.095994,43.128815 36.595586,38.553612 32.4,33.7 Z m 0.2,0 c 5.835296,5.393825 11.558882,10.906546 17.3,16.4 -5.422464,5.805274 -10.980511,11.485 -16.6,17.1 -0.156784,-1.062657 0.01945,-1.87481 0.865928,-0.65192 0.663559,0.810463 -2.056635,0.371816 -0.545586,-0.345985 2.196965,-1.990761 4.173896,-4.226932 6.329959,-6.273498 C 43.328591,56.580729 46.732601,53.258866 50.1,49.9 c 5.685563,5.683064 11.206634,11.526964 16.8,17.3 -1.770295,0.453755 1.220615,-2.029664 0.247807,-0.310779 C 65.067558,64.359303 62.603776,62.051823 60.326035,59.6542 57.141729,56.411925 53.919275,53.207461 50.7,50 56.209832,44.472719 61.489117,38.722862 66.9,33.1 c 0.540588,1.490403 -1.066276,0.701571 -0.967499,0.01399 2.00475,-0.215748 -1.251709,1.899098 -1.726872,2.748765 C 59.63752,40.495156 55.021044,45.0826 50.339919,49.59944 49.052261,49.746718 47.885254,47.209582 46.63043,46.323874 42.413634,41.907421 38.122626,37.53649 34.005718,33.040988 33.793853,32.092303 33.106603,33.526452 32.6,33.7 Z"></path></g><line class="vx-line" x1="425.89333697421944" y1="215.9136934740825" x2="447.0221328540742" y2="172.22916366877467" fill="transparent" stroke="#4111ec" stroke-width="1.5" opacity="0.66"></line><g class="vx-group vx-glyph" transform="translate(432.52429504288017, 137.7857142857143)"><path stroke="#4111ec" stroke-width="1.25" fill="#4111ec" transform="scale(0.42000000000000004)" class="vx-glyph left.air.unmasked" d="m 32.4,33.7 c 0.75044,-0.977258 1.516998,-1.888581 2.363644,-0.414446 C 40.077007,38.218567 45.317621,43.229653 50.5,48.3 48.300109,48.412538 51.743949,46.29154 52.116028,45.516413 56.801538,40.768526 61.525115,36.058051 66.3,31.4 c 0.859531,1.153798 3.371045,2.396048 1.156003,3.441181 C 62.045408,39.967117 56.62528,45.08517 51.3,50.3 c 0.287772,-0.874475 1.624539,1.476149 2.279518,1.779282 C 58.401536,56.904755 63.205413,61.751643 68.2,66.4 67.216041,67.289323 66.286022,69.300277 65.22868,67.37789 59.877027,62.262075 54.59863,57.0705 49.3,51.9 51.823123,51.496001 48.921405,53.365354 48.375742,54.154579 43.488893,59.054416 38.67226,64.05373 33.722242,68.872323 33.027807,68.023935 31.141059,66.902765 31.265686,66.034368 36.846205,60.457556 42.507634,54.962381 48.2,49.5 48.30313,51.764739 46.331591,48.197122 45.517153,47.774511 41.095994,43.128815 36.595586,38.553612 32.4,33.7 Z m 0.2,0 c 5.835296,5.393825 11.558882,10.906546 17.3,16.4 -5.422464,5.805274 -10.980511,11.485 -16.6,17.1 -0.156784,-1.062657 0.01945,-1.87481 0.865928,-0.65192 0.663559,0.810463 -2.056635,0.371816 -0.545586,-0.345985 2.196965,-1.990761 4.173896,-4.226932 6.329959,-6.273498 C 43.328591,56.580729 46.732601,53.258866 50.1,49.9 c 5.685563,5.683064 11.206634,11.526964 16.8,17.3 -1.770295,0.453755 1.220615,-2.029664 0.247807,-0.310779 C 65.067558,64.359303 62.603776,62.051823 60.326035,59.6542 57.141729,56.411925 53.919275,53.207461 50.7,50 56.209832,44.472719 61.489117,38.722862 66.9,33.1 c 0.540588,1.490403 -1.066276,0.701571 -0.967499,0.01399 2.00475,-0.215748 -1.251709,1.899098 -1.726872,2.748765 C 59.63752,40.495156 55.021044,45.0826 50.339919,49.59944 49.052261,49.746718 47.885254,47.209582 46.63043,46.323874 42.413634,41.907421 38.122626,37.53649 34.005718,33.040988 33.793853,32.092303 33.106603,33.526452 32.6,33.7 Z"></path></g></g><g class="response-line response-line-bone response-line-right"><g class="vx-group vx-glyph" transform="translate(263.8421925014216, 97.45714285714286)"><path stroke="#ec1141" stroke-width="1.25" fill="#ec1141" transform="scale(0.5599999999999999)" class="vx-glyph right.bone.unmasked" d="M21.707,2.293a1,1,0,0,0-1.414,0l-12,12a1,1,0,0,0,0,1.414l12,12a1,1,0,0,0,1.414-1.414L10.414,15,21.707,3.707A1,1,0,0,0,21.707,2.293Z"></path></g><g class="vx-group vx-glyph" transform="translate(346.08324377215087, 185.67142857142855)"><path stroke="#ec1141" stroke-width="1.25" fill="#ec1141" transform="scale(0.5599999999999999)" class="vx-glyph right.bone.unmasked" d="M21.707,2.293a1,1,0,0,0-1.414,0l-12,12a1,1,0,0,0,0,1.414l12,12a1,1,0,0,0,1.414-1.414L10.414,15,21.707,3.707A1,1,0,0,0,21.707,2.293Z"></path></g></g><g class="response-line response-line-bone response-line-left"><g class="vx-group vx-glyph" transform="translate(43.99903868923387, 62.17142857142857)"><path stroke="#4111ec" stroke-width="1.25" fill="#4111ec" transform="scale(0.5599999999999999)" class="vx-glyph left.bone.unmasked" d="M8.293,27.707a1,1,0,0,0,1.414,0l12-12a1,1,0,0,0,0-1.414l-12-12A1,1,0,0,0,8.293,3.707L19.586,15,8.293,26.293A1,1,0,0,0,8.293,27.707Z"></path></g><g class="vx-group vx-glyph" transform="translate(132.9600899599631, 62.17142857142857)"><path stroke="#4111ec" stroke-width="1.25" fill="#4111ec" transform="scale(0.5599999999999999)" class="vx-glyph left.bone.unmasked" d="M8.293,27.707a1,1,0,0,0,1.414,0l12-12a1,1,0,0,0,0-1.414l-12-12A1,1,0,0,0,8.293,3.707L19.586,15,8.293,26.293A1,1,0,0,0,8.293,27.707Z"></path></g><g class="vx-group vx-glyph" transform="translate(215.20114123069237, 79.81428571428572)"><path stroke="#4111ec" stroke-width="1.25" fill="#4111ec" transform="scale(0.5599999999999999)" class="vx-glyph left.bone.unmasked" d="M8.293,27.707a1,1,0,0,0,1.414,0l12-12a1,1,0,0,0,0-1.414l-12-12A1,1,0,0,0,8.293,3.707L19.586,15,8.293,26.293A1,1,0,0,0,8.293,27.707Z"></path></g><g class="vx-group vx-glyph" transform="translate(289.0421925014216, -195.88095238095235)"><path stroke="#4111ec" stroke-width="1.25" fill="#4111ec" transform="scale(0.3546666666666667)" class="vx-glyph left.bone.masked" d="m 56,978.36219 0,2 0,44.00001 0,2 -2,0 -8,0 -2,0 0,-4 2,0 6,0 0,-40.00001 -6,0 -2,0 0,-4 2,0 8,0 2,0 z"></path></g><g class="vx-group vx-glyph" transform="translate(371.28324377215085, -90.02380952380958)"><path stroke="#4111ec" stroke-width="1.25" fill="#4111ec" transform="scale(0.3546666666666667)" class="vx-glyph left.bone.masked" d="m 56,978.36219 0,2 0,44.00001 0,2 -2,0 -8,0 -2,0 0,-4 2,0 6,0 0,-40.00001 -6,0 -2,0 0,-4 2,0 8,0 2,0 z"></path></g></g></g></svg>
